<svg width="22" height="23" viewBox="0 0 22 23" fill="none" xmlns="http://www.w3.org/2000/svg">
<path d="M20.8633 12.4009C20.6881 14.2963 19.9768 16.1025 18.8125 17.6084C17.6483 19.1142 16.0792 20.2573 14.289 20.904C12.4988 21.5506 10.5614 21.674 8.7036 21.2598C6.84579 20.8455 5.14437 19.9108 3.79844 18.5648C2.45251 17.2189 1.51773 15.5175 1.10348 13.6597C0.689235 11.8019 0.812653 9.8645 1.4593 8.07428C2.10594 6.28405 3.24906 4.715 4.7549 3.55074C6.26074 2.38648 8.06702 1.67516 9.96238 1.5C8.85271 3.00126 8.31872 4.85094 8.45756 6.71263C8.59639 8.57432 9.39881 10.3243 10.7189 11.6444C12.0389 12.9645 13.789 13.7669 15.6507 13.9057C17.5123 14.0446 19.362 13.5106 20.8633 12.4009Z" stroke="white" stroke-width="1.5" stroke-linecap="round" stroke-linejoin="round"/>
</svg>
