<svg width="25" height="26" viewBox="0 0 25 26" fill="none" xmlns="http://www.w3.org/2000/svg">
<path d="M21.1636 5.20167C19.5701 4.47054 17.8614 3.93188 16.0749 3.62336C16.0424 3.61741 16.0099 3.63229 15.9931 3.66205C15.7733 4.0529 15.5299 4.56279 15.3595 4.96357C13.4379 4.67589 11.5262 4.67589 9.64408 4.96357C9.47359 4.55389 9.22134 4.0529 9.0006 3.66205C8.98384 3.63328 8.95134 3.6184 8.9188 3.62336C7.13324 3.93089 5.42454 4.46955 3.83014 5.20167C3.81634 5.20762 3.80451 5.21755 3.79666 5.23044C0.555616 10.0725 -0.33224 14.7955 0.103313 19.46C0.105283 19.4828 0.118094 19.5046 0.135831 19.5185C2.27418 21.0889 4.34553 22.0422 6.37842 22.6741C6.41095 22.684 6.44542 22.6721 6.46613 22.6453C6.94701 21.9886 7.37567 21.2962 7.7432 20.568C7.76489 20.5254 7.74419 20.4748 7.69986 20.4579C7.01993 20.2 6.3725 19.8855 5.74972 19.5284C5.70046 19.4997 5.69651 19.4292 5.74183 19.3955C5.87289 19.2973 6.00398 19.1951 6.12912 19.0919C6.15176 19.0731 6.18331 19.0691 6.20993 19.081C10.3013 20.949 14.7308 20.949 18.7739 19.081C18.8005 19.0681 18.8321 19.0721 18.8557 19.0909C18.9809 19.1941 19.1119 19.2973 19.244 19.3955C19.2893 19.4292 19.2863 19.4997 19.2371 19.5284C18.6143 19.8925 17.9669 20.2 17.2859 20.457C17.2416 20.4738 17.2219 20.5254 17.2436 20.568C17.619 21.2952 18.0477 21.9876 18.5197 22.6443C18.5394 22.6721 18.5749 22.684 18.6074 22.6741C20.6501 22.0422 22.7215 21.0889 24.8598 19.5185C24.8786 19.5046 24.8904 19.4838 24.8924 19.461C25.4136 14.0683 24.0193 9.38403 21.1961 5.23142C21.1892 5.21755 21.1774 5.20762 21.1636 5.20167ZM8.35419 16.6198C7.12239 16.6198 6.10743 15.4889 6.10743 14.1001C6.10743 12.7112 7.10271 11.5804 8.35419 11.5804C9.61549 11.5804 10.6206 12.7212 10.6009 14.1001C10.6009 15.4889 9.60563 16.6198 8.35419 16.6198ZM16.6612 16.6198C15.4294 16.6198 14.4145 15.4889 14.4145 14.1001C14.4145 12.7112 15.4097 11.5804 16.6612 11.5804C17.9225 11.5804 18.9276 12.7212 18.908 14.1001C18.908 15.4889 17.9225 16.6198 16.6612 16.6198Z" fill="white"/>
</svg>
