<svg width="133" height="30" viewBox="0 0 133 30" fill="none" xmlns="http://www.w3.org/2000/svg">
<g filter="url(#filter0_i_13417_502)">
<path d="M30 15C30 23.2843 23.2843 30 15 30C6.71573 30 0 23.2843 0 15C0 6.71573 6.71573 0 15 0C23.2843 0 30 6.71573 30 15Z" fill="#3445DB"/>
</g>
<path d="M18.4946 10.6255L19.5888 9.25971L18.4946 10.6255C19.5711 11.4878 20.2796 12.7599 20.4508 14.1664C20.6221 15.5731 20.2397 16.9825 19.4001 18.0845C18.5617 19.1849 17.3381 19.8877 16.0036 20.0529L12.4622 20.4915C12.0195 20.4929 11.5817 20.3419 11.2205 20.0525C10.8564 19.7608 10.5927 19.3458 10.4808 18.8723L10.0655 15.46C9.89424 14.0534 10.2766 12.644 11.1162 11.542C11.9546 10.4416 13.1782 9.73884 14.5127 9.57356L14.732 9.5464C16.0663 9.38115 17.4198 9.76445 18.4946 10.6255Z" stroke="white" stroke-width="3.5"/>
<path d="M40.6519 1.26678H48.8006C55.201 1.26678 59.4087 5.45559 59.4087 11.7089C59.4087 17.9322 55.201 22.2108 48.8006 22.2108H40.6519C40.2667 22.2108 40 21.9116 40 21.5226V1.92502C40 1.56598 40.2667 1.26678 40.6519 1.26678ZM44.4447 18.0818H48.8006C52.3564 18.0818 54.7565 15.2993 54.7565 11.7089C54.7565 8.05863 52.3564 5.39574 48.8006 5.39574H44.4447V18.0818Z" fill="white"/>
<path d="M68.9281 7.43031H69.3429C69.6689 7.43031 70.0541 7.54999 70.0541 8.23815V11.2002C70.0541 11.8884 69.5207 12.0081 69.2837 12.0081H68.5133C66.6465 12.0081 65.6983 12.9057 65.6983 15.1497V21.6124C65.6983 21.9714 65.3723 22.2108 65.0464 22.2108H62.0536C61.698 22.2108 61.4313 21.9415 61.4313 21.5825V8.29799C61.4313 7.93895 61.698 7.63975 62.0536 7.63975H64.8982C65.2241 7.63975 65.5205 7.90903 65.5205 8.23815V9.43495C66.3205 8.14839 67.5354 7.43031 68.9281 7.43031Z" fill="white"/>
<path d="M73.7803 6.08391C72.358 6.08391 71.2023 4.8871 71.2023 3.48086C71.2023 2.0447 72.358 0.8479 73.7803 0.8479C75.173 0.8479 76.3286 2.0447 76.3286 3.48086C76.3286 4.8871 75.173 6.08391 73.7803 6.08391ZM75.2619 22.2108H72.2691C71.9135 22.2108 71.6172 21.9116 71.6172 21.5526V8.29799C71.6172 7.93895 71.9135 7.63975 72.2691 7.63975H75.2619C75.6174 7.63975 75.8841 7.93895 75.8841 8.29799V21.5526C75.8841 21.9116 75.6174 22.2108 75.2619 22.2108Z" fill="white"/>
<path d="M82.6837 14.9402C82.6837 17.0047 84.2245 18.6503 86.2394 18.6503C88.2544 18.6503 89.7656 17.0047 89.7656 14.9402C89.7656 12.9057 88.2544 11.2302 86.2394 11.2302C84.2245 11.2302 82.6837 12.9057 82.6837 14.9402ZM82.654 8.29799V9.19559C83.4837 8.02871 84.9949 7.22087 86.9802 7.22087C90.7435 7.22087 94.0622 10.2129 94.0622 14.9103C94.0622 19.6078 90.7435 22.6297 86.921 22.6297C85.2912 22.6297 83.543 22.0612 82.7133 20.8345V28.0751C82.7133 28.4342 82.417 28.7034 82.091 28.7034H79.0686C78.713 28.7034 78.4463 28.4342 78.4463 28.0751V8.29799C78.4463 7.93895 78.713 7.63975 79.0686 7.63975H82.0318C82.3873 7.63975 82.654 7.93895 82.654 8.29799Z" fill="white"/>
<path d="M100.191 14.9402C100.191 17.0047 101.731 18.6503 103.746 18.6503C105.761 18.6503 107.273 17.0047 107.273 14.9402C107.273 12.9057 105.761 11.2302 103.746 11.2302C101.731 11.2302 100.191 12.9057 100.191 14.9402ZM100.161 8.29799V9.19559C100.991 8.02871 102.502 7.22087 104.487 7.22087C108.25 7.22087 111.569 10.2129 111.569 14.9103C111.569 19.6078 108.25 22.6297 104.428 22.6297C102.798 22.6297 101.05 22.0612 100.22 20.8345V28.0751C100.22 28.4342 99.9239 28.7034 99.598 28.7034H96.5756C96.22 28.7034 95.9533 28.4342 95.9533 28.0751V8.29799C95.9533 7.93895 96.22 7.63975 96.5756 7.63975H99.5387C99.8943 7.63975 100.161 7.93895 100.161 8.29799Z" fill="white"/>
<path d="M116.404 29.1522C114.626 29.1522 113.056 28.5838 112.019 27.6263C111.693 27.3271 111.663 26.9382 111.959 26.4894L113.026 24.9335C113.382 24.365 113.945 24.4847 114.33 24.754C114.804 25.113 115.426 25.4422 116.108 25.4422C116.938 25.4422 117.589 24.9335 117.915 24.0658L118.567 22.2108H117.056C116.612 22.2108 116.375 21.9415 116.256 21.5825L112.019 8.65703C111.871 8.14839 111.959 7.63975 112.7 7.63975H116.167C116.552 7.63975 116.76 7.96887 116.849 8.32791L119.723 18.2614L122.39 8.32791C122.479 7.96887 122.716 7.63975 123.19 7.63975H126.538C127.131 7.63975 127.309 8.05863 127.101 8.65703L122.182 24.6642C121.323 27.4169 119.397 29.1522 116.404 29.1522Z" fill="white"/>
<path d="M130.185 22.6297C128.644 22.6297 127.4 21.373 127.4 19.8172C127.4 18.2614 128.644 17.0047 130.185 17.0047C131.726 17.0047 133 18.2614 133 19.8172C133 21.373 131.726 22.6297 130.185 22.6297Z" fill="white"/>
<defs>
<filter id="filter0_i_13417_502" x="0" y="0" width="30" height="31" filterUnits="userSpaceOnUse" color-interpolation-filters="sRGB">
<feFlood flood-opacity="0" result="BackgroundImageFix"/>
<feBlend mode="normal" in="SourceGraphic" in2="BackgroundImageFix" result="shape"/>
<feColorMatrix in="SourceAlpha" type="matrix" values="0 0 0 0 0 0 0 0 0 0 0 0 0 0 0 0 0 0 127 0" result="hardAlpha"/>
<feOffset dy="1"/>
<feGaussianBlur stdDeviation="1"/>
<feComposite in2="hardAlpha" operator="arithmetic" k2="-1" k3="1"/>
<feColorMatrix type="matrix" values="0 0 0 0 1 0 0 0 0 1 0 0 0 0 1 0 0 0 0.25 0"/>
<feBlend mode="normal" in2="shape" result="effect1_innerShadow_13417_502"/>
</filter>
</defs>
</svg>
