<svg width="30" height="30" viewBox="0 0 30 30" fill="none" xmlns="http://www.w3.org/2000/svg">
<g filter="url(#filter0_i_13156_12372)">
<path d="M30 15C30 23.2843 23.2843 30 15 30C6.71573 30 0 23.2843 0 15C0 6.71573 6.71573 0 15 0C23.2843 0 30 6.71573 30 15Z" fill="#3445DB"/>
</g>
<path d="M18.4946 10.6255L19.5888 9.25971L18.4946 10.6255C19.5711 11.4878 20.2796 12.7599 20.4508 14.1664C20.6221 15.5731 20.2397 16.9825 19.4001 18.0845C18.5617 19.1849 17.3381 19.8877 16.0036 20.0529L12.4622 20.4915C12.0195 20.4929 11.5817 20.3419 11.2205 20.0525C10.8564 19.7608 10.5927 19.3458 10.4808 18.8723L10.0655 15.46C9.89424 14.0534 10.2766 12.644 11.1162 11.542C11.9546 10.4416 13.1782 9.73884 14.5127 9.57356L14.732 9.5464C16.0663 9.38115 17.4198 9.76445 18.4946 10.6255Z" stroke="white" stroke-width="3.5"/>
<defs>
<filter id="filter0_i_13156_12372" x="0" y="0" width="30" height="31" filterUnits="userSpaceOnUse" color-interpolation-filters="sRGB">
<feFlood flood-opacity="0" result="BackgroundImageFix"/>
<feBlend mode="normal" in="SourceGraphic" in2="BackgroundImageFix" result="shape"/>
<feColorMatrix in="SourceAlpha" type="matrix" values="0 0 0 0 0 0 0 0 0 0 0 0 0 0 0 0 0 0 127 0" result="hardAlpha"/>
<feOffset dy="1"/>
<feGaussianBlur stdDeviation="1"/>
<feComposite in2="hardAlpha" operator="arithmetic" k2="-1" k3="1"/>
<feColorMatrix type="matrix" values="0 0 0 0 1 0 0 0 0 1 0 0 0 0 1 0 0 0 0.25 0"/>
<feBlend mode="normal" in2="shape" result="effect1_innerShadow_13156_12372"/>
</filter>
</defs>
</svg>
