<svg width="26" height="26" viewBox="0 0 26 26" fill="none" xmlns="http://www.w3.org/2000/svg">
<g clip-path="url(#clip0_13256_15752)">
<path d="M12.8335 3.12402C16.1733 3.12402 16.5688 3.13867 17.8823 3.19727C19.103 3.25098 19.7622 3.45606 20.2017 3.62695C20.7827 3.85156 21.2026 4.125 21.6372 4.55957C22.0767 4.99902 22.3452 5.41406 22.5698 5.99512C22.7407 6.43457 22.9458 7.09863 22.9995 8.31445C23.0581 9.63281 23.0728 10.0283 23.0728 13.3633C23.0728 16.7031 23.0581 17.0986 22.9995 18.4121C22.9458 19.6328 22.7407 20.292 22.5698 20.7314C22.3452 21.3125 22.0718 21.7324 21.6372 22.167C21.1978 22.6064 20.7827 22.875 20.2017 23.0996C19.7622 23.2705 19.0981 23.4756 17.8823 23.5293C16.564 23.5879 16.1685 23.6025 12.8335 23.6025C9.49365 23.6025 9.09815 23.5879 7.78467 23.5293C6.56397 23.4756 5.90479 23.2705 5.46533 23.0996C4.88428 22.875 4.46436 22.6016 4.02979 22.167C3.59033 21.7275 3.32178 21.3125 3.09717 20.7314C2.92627 20.292 2.72119 19.6279 2.66748 18.4121C2.60889 17.0938 2.59424 16.6982 2.59424 13.3633C2.59424 10.0234 2.60889 9.62793 2.66748 8.31445C2.72119 7.09375 2.92627 6.43457 3.09717 5.99512C3.32178 5.41406 3.59521 4.99414 4.02979 4.55957C4.46924 4.12012 4.88428 3.85156 5.46533 3.62695C5.90479 3.45606 6.56885 3.25098 7.78467 3.19727C9.09815 3.13867 9.49365 3.12402 12.8335 3.12402ZM12.8335 0.873047C9.43994 0.873047 9.01514 0.887695 7.68213 0.946289C6.354 1.00488 5.44092 1.21973 4.6499 1.52734C3.82471 1.84961 3.12647 2.27441 2.43311 2.97266C1.73486 3.66602 1.31006 4.36426 0.987793 5.18457C0.680176 5.98047 0.465332 6.88867 0.406738 8.2168C0.348145 9.55469 0.333496 9.97949 0.333496 13.373C0.333496 16.7666 0.348145 17.1914 0.406738 18.5244C0.465332 19.8525 0.680176 20.7656 0.987793 21.5566C1.31006 22.3818 1.73486 23.0801 2.43311 23.7734C3.12647 24.4668 3.82471 24.8965 4.64502 25.2139C5.44092 25.5215 6.34912 25.7363 7.67725 25.7949C9.01025 25.8535 9.43506 25.8682 12.8286 25.8682C16.2222 25.8682 16.647 25.8535 17.98 25.7949C19.3081 25.7363 20.2212 25.5215 21.0122 25.2139C21.8325 24.8965 22.5308 24.4668 23.2241 23.7734C23.9175 23.0801 24.3472 22.3818 24.6646 21.5615C24.9722 20.7656 25.187 19.8574 25.2456 18.5293C25.3042 17.1963 25.3188 16.7715 25.3188 13.3779C25.3188 9.98438 25.3042 9.55957 25.2456 8.22656C25.187 6.89844 24.9722 5.98535 24.6646 5.19434C24.3569 4.36426 23.9321 3.66602 23.2339 2.97266C22.5405 2.2793 21.8423 1.84961 21.022 1.53223C20.2261 1.22461 19.3179 1.00977 17.9897 0.951172C16.6519 0.887695 16.2271 0.873047 12.8335 0.873047Z" fill="white"/>
<path d="M12.8335 6.95215C9.28857 6.95215 6.4126 9.82812 6.4126 13.373C6.4126 16.918 9.28857 19.7939 12.8335 19.7939C16.3784 19.7939 19.2544 16.918 19.2544 13.373C19.2544 9.82812 16.3784 6.95215 12.8335 6.95215ZM12.8335 17.5381C10.5337 17.5381 8.66846 15.6729 8.66846 13.373C8.66846 11.0732 10.5337 9.20801 12.8335 9.20801C15.1333 9.20801 16.9985 11.0732 16.9985 13.373C16.9985 15.6729 15.1333 17.5381 12.8335 17.5381Z" fill="white"/>
<path d="M21.0073 6.69824C21.0073 7.52832 20.3335 8.19727 19.5083 8.19727C18.6782 8.19727 18.0093 7.52344 18.0093 6.69824C18.0093 5.86816 18.6831 5.19922 19.5083 5.19922C20.3335 5.19922 21.0073 5.87305 21.0073 6.69824Z" fill="white"/>
</g>
<defs>
<clipPath id="clip0_13256_15752">
<rect width="25" height="25" fill="white" transform="translate(0.333496 0.873047)"/>
</clipPath>
</defs>
</svg>
