<svg width="26" height="26" viewBox="0 0 26 26" fill="none" xmlns="http://www.w3.org/2000/svg">
<path d="M15.7095 6.76758C15.9263 7.68652 16.7515 8.37109 17.7368 8.37109C18.8872 8.37109 19.8198 7.43848 19.8198 6.28809C19.8198 5.1377 18.8872 4.20508 17.7368 4.20508C16.731 4.20508 15.8921 4.91797 15.6968 5.86621C14.0122 6.04688 12.6968 7.47559 12.6968 9.20703C12.6968 9.21094 12.6968 9.21387 12.6968 9.21777C10.8647 9.29492 9.19189 9.81641 7.86377 10.6396C7.3706 10.2578 6.75146 10.0303 6.07959 10.0303C4.46729 10.0303 3.16064 11.3369 3.16064 12.9492C3.16064 14.1191 3.84814 15.127 4.84131 15.5928C4.93799 18.9814 8.63037 21.707 13.1724 21.707C17.7144 21.707 21.4116 18.9785 21.5034 15.5869C22.4888 15.1182 23.1704 14.1133 23.1704 12.9502C23.1704 11.3379 21.8638 10.0313 20.2515 10.0313C19.5825 10.0313 18.9663 10.2568 18.4741 10.6357C17.1343 9.80664 15.4429 9.28516 13.5923 9.21582C13.5923 9.21289 13.5923 9.21094 13.5923 9.20801C13.5923 7.96777 14.5142 6.93848 15.7095 6.76953V6.76758ZM7.74658 14.8018C7.79541 13.7432 8.49854 12.9307 9.31592 12.9307C10.1333 12.9307 10.7583 13.7891 10.7095 14.8477C10.6606 15.9063 10.0503 16.291 9.23193 16.291C8.41357 16.291 7.69775 15.8604 7.74658 14.8018ZM17.0298 12.9307C17.8481 12.9307 18.5513 13.7432 18.5991 14.8018C18.6479 15.8604 17.9312 16.291 17.1138 16.291C16.2964 16.291 15.6851 15.9072 15.6362 14.8477C15.5874 13.7891 16.2114 12.9307 17.0298 12.9307ZM16.0571 17.251C16.2104 17.2666 16.3081 17.4258 16.2485 17.5684C15.7456 18.7705 14.5581 19.6152 13.1724 19.6152C11.7866 19.6152 10.6001 18.7705 10.0962 17.5684C10.0366 17.4258 10.1343 17.2666 10.2876 17.251C11.186 17.1602 12.1577 17.1104 13.1724 17.1104C14.187 17.1104 15.1577 17.1602 16.0571 17.251Z" fill="white"/>
</svg>
